<svg xmlns="http://www.w3.org/2000/svg" width="1440" height="900" viewBox="0 0 1440 900">
  <rect width="1440" height="900" fill="#101522"/><rect x="56" y="48" width="1328" height="804" rx="22" fill="#f7f8fb"/>
  <rect x="56" y="48" width="1328" height="64" rx="22" fill="#ffffff"/><circle cx="88" cy="80" r="8" fill="#ff605c"/><circle cx="114" cy="80" r="8" fill="#ffbd44"/><circle cx="140" cy="80" r="8" fill="#00ca4e"/><text x="190" y="87" font-family="-apple-system,sans-serif" font-size="22" font-weight="700" fill="#172033">MenubarNumbers</text>
  <rect x="82" y="140" width="1276" height="52" rx="10" fill="#e8edf7"/><rect x="730" y="144" width="624" height="44" rx="8" fill="#ffffff"/><text x="1014" y="173" font-family="-apple-system,sans-serif" font-size="16" font-weight="600" fill="#34425c">Menu Bar</text><text x="354" y="173" font-family="-apple-system,sans-serif" font-size="16" fill="#68758c">Sources</text>
  <text x="96" y="252" font-family="-apple-system,sans-serif" font-size="25" font-weight="700" fill="#172033">Menu Bar Builder</text><text x="96" y="284" font-family="-apple-system,sans-serif" font-size="15" fill="#68758c">Drag scalar JSON values into this preview. The same text appears in the real menu bar.</text>
  <rect x="96" y="320" width="1248" height="76" rx="12" fill="#1e293b" stroke="#4263eb" stroke-width="2"/><text x="120" y="366" font-family="-apple-system,sans-serif" font-size="18" fill="#dbe6ff"></text><text x="1080" y="366" font-family="-apple-system,sans-serif" font-size="18" font-weight="600" fill="#ffffff">BTC $95,420 · ETH $3,420</text><text x="120" y="418" font-family="-apple-system,sans-serif" font-size="14" fill="#4263eb">Drop target active</text>
  <rect x="96" y="462" width="1248" height="318" rx="14" fill="#ffffff" stroke="#e1e5ee"/><text x="128" y="508" font-family="-apple-system,sans-serif" font-size="18" font-weight="700" fill="#172033">Selected values</text><text x="1040" y="508" font-family="-apple-system,sans-serif" font-size="15" fill="#68758c">Separator:  ·  </text>
  <rect x="128" y="538" width="1184" height="76" rx="10" fill="#f7f8fb"/><circle cx="158" cy="576" r="10" fill="#4263eb"/><text x="190" y="568" font-family="-apple-system,sans-serif" font-size="16" font-weight="600" fill="#26334c">BTC</text><text x="190" y="594" font-family="-apple-system,sans-serif" font-size="13" fill="#68758c">/prices/bitcoin · 2 decimals · {label} {value}</text><text x="1225" y="584" font-family="-apple-system,sans-serif" font-size="20" fill="#68758c">↕</text>
  <rect x="128" y="632" width="1184" height="76" rx="10" fill="#f7f8fb"/><circle cx="158" cy="670" r="10" fill="#4263eb"/><text x="190" y="662" font-family="-apple-system,sans-serif" font-size="16" font-weight="600" fill="#26334c">ETH</text><text x="190" y="688" font-family="-apple-system,sans-serif" font-size="13" fill="#68758c">/prices/ethereum · 2 decimals · {label} {value}</text><text x="1225" y="678" font-family="-apple-system,sans-serif" font-size="20" fill="#68758c">↕</text>
</svg>
